<svg viewBox="0 0 128 128" xmlns="http://www.w3.org/2000/svg"><path fill="#FFFFFF" d="M 63.443,0 C 61.661,0 59.879,0.39 58.527,1.172 L 11.594,28.27 C 8.89,29.828 6.68,33.66 6.68,36.78 v 54.197 c 0,1.562 0.55,3.298 1.441,4.841 L 8.119,95.82 c 0.89,1.543 2.123,2.89 3.475,3.672 l 46.931,27.094 c 2.703,1.562 7.13,1.562 9.832,0 h 0.002 l 46.934,-27.094 c 1.352,-0.78 2.582,-2.129 3.473,-3.672 0.89,-1.543 1.441,-3.28 1.441,-4.843 V 36.779 c 0,-1.557 -0.55,-3.295 -1.441,-4.838 v -0.002 c -0.891,-1.545 -2.121,-2.893 -3.473,-3.67 L 68.359,1.173 C 67.008,0.39 65.226,0 63.443,0 Z m 0.990417,26.033 c 13.465,0 26.02,7.246 32.77,18.91 l -16.38,9.479 c -3.372,-5.836 -9.66,-9.467 -16.39,-9.467 -10.432,0 -18.922,8.49 -18.922,18.924 0,10.434 8.49,18.921 18.922,18.921 6.735,0 13.015,-3.625 16.395,-9.465 l 16.375,9.477 c -6.746,11.662 -19.305,18.91 -32.77,18.91 -20.867,0 -37.843,-16.977 -37.843,-37.844 0,-20.867 16.976,-37.844 37.843,-37.844 v -0.002 z"></path></svg>
          